<svg xmlns="http://www.w3.org/2000/svg" xmlns:xlink="http://www.w3.org/1999/xlink" viewBox="0 0 173.37 690.58"><defs><style>.cls-1{fill:#fff;}.cls-2,.cls-20{opacity:0.3;}.cls-3{fill:url(#linear-gradient);}.cls-4{fill:url(#linear-gradient-2);}.cls-5{fill:url(#linear-gradient-3);}.cls-13,.cls-14,.cls-15,.cls-16,.cls-17,.cls-18,.cls-19,.cls-21,.cls-22,.cls-23,.cls-6{opacity:0.2;}.cls-7{fill:url(#linear-gradient-4);}.cls-8{fill:url(#linear-gradient-5);}.cls-9{fill:url(#linear-gradient-6);}.cls-10{fill:url(#linear-gradient-7);}.cls-11{fill:url(#linear-gradient-8);}.cls-12{fill:url(#linear-gradient-9);}.cls-13{fill:url(#linear-gradient-10);}.cls-14,.cls-18{fill:#97dfff;}.cls-15,.cls-16,.cls-17,.cls-18,.cls-19,.cls-20,.cls-21,.cls-22,.cls-23{stroke:#fff;stroke-miterlimit:10;}.cls-15{fill:url(#linear-gradient-11);}.cls-16{fill:url(#linear-gradient-12);}.cls-17{fill:url(#linear-gradient-13);}.cls-19{fill:url(#linear-gradient-14);}.cls-20{fill:url(#linear-gradient-15);}.cls-21{fill:url(#linear-gradient-16);}.cls-22{fill:url(#linear-gradient-17);}.cls-23{fill:url(#linear-gradient-18);}.cls-24{fill:url(#linear-gradient-19);}.cls-25{fill:url(#linear-gradient-20);}</style><linearGradient id="linear-gradient" x1="-203.57" y1="60.5" x2="-203.57" y2="232.87" gradientTransform="translate(-60 213.37) rotate(-90)" gradientUnits="userSpaceOnUse"><stop offset="0" stop-color="#97dfff"/><stop offset="0.14" stop-color="#8ad5f9"/><stop offset="0.39" stop-color="#67bcea"/><stop offset="0.74" stop-color="#3094d1"/><stop offset="1" stop-color="#0071bc"/></linearGradient><linearGradient id="linear-gradient-2" x1="-253.09" y1="60.5" x2="-253.09" y2="232.87" gradientTransform="translate(-60 213.37) rotate(-90)" gradientUnits="userSpaceOnUse"><stop offset="0" stop-color="#97dfff"/><stop offset="0.18" stop-color="#8ad9fc"/><stop offset="0.51" stop-color="#67c8f2"/><stop offset="0.95" stop-color="#30aee4"/><stop offset="1" stop-color="#29abe2"/></linearGradient><linearGradient id="linear-gradient-3" x1="-251.17" y1="60.5" x2="-251.17" y2="232.87" gradientTransform="translate(-60 213.37) rotate(-90)" gradientUnits="userSpaceOnUse"><stop offset="0" stop-color="#fff"/><stop offset="0.1" stop-color="#f2fafd"/><stop offset="0.3" stop-color="#cfecf9"/><stop offset="0.56" stop-color="#97d6f1"/><stop offset="0.87" stop-color="#4ab8e6"/><stop offset="1" stop-color="#29abe2"/></linearGradient><linearGradient id="linear-gradient-4" x1="-214.84" y1="141.54" x2="-261.15" y2="221.76" gradientTransform="translate(-60 213.37) rotate(-90)" gradientUnits="userSpaceOnUse"><stop offset="0" stop-color="#97dfff"/><stop offset="1" stop-color="#97dfff"/></linearGradient><linearGradient id="linear-gradient-5" x1="-258.67" y1="116.24" x2="-342.14" y2="260.81" xlink:href="#linear-gradient"/><linearGradient id="linear-gradient-6" x1="-476.19" y1="146.68" x2="4.36" y2="146.68" gradientTransform="translate(-60 213.37) rotate(-90)" gradientUnits="userSpaceOnUse"><stop offset="0" stop-color="#29abe2"/><stop offset="0.06" stop-color="#53bce8"/><stop offset="0.12" stop-color="#7bcbed"/><stop offset="0.19" stop-color="#9fd9f2"/><stop offset="0.27" stop-color="#bce5f6"/><stop offset="0.35" stop-color="#d5eff9"/><stop offset="0.45" stop-color="#e7f6fc"/><stop offset="0.56" stop-color="#f4fbfe"/><stop offset="0.7" stop-color="#fcfeff"/><stop offset="1" stop-color="#feffff"/></linearGradient><linearGradient id="linear-gradient-7" x1="-340.87" y1="60.5" x2="-340.87" y2="232.87" gradientTransform="translate(-60 213.37) rotate(-90)" gradientUnits="userSpaceOnUse"><stop offset="0" stop-color="#fff"/><stop offset="0.1" stop-color="#f5fbfe"/><stop offset="0.26" stop-color="#daf0fa"/><stop offset="0.48" stop-color="#aedff4"/><stop offset="0.73" stop-color="#70c7ec"/><stop offset="1" stop-color="#29abe2"/></linearGradient><linearGradient id="linear-gradient-8" x1="-440.81" y1="60.5" x2="-440.81" y2="232.87" xlink:href="#linear-gradient-7"/><linearGradient id="linear-gradient-9" x1="-477.05" y1="146.68" x2="-402.16" y2="146.68" gradientTransform="translate(-60 213.37) rotate(-90)" gradientUnits="userSpaceOnUse"><stop offset="0" stop-color="#97dfff"/><stop offset="0.16" stop-color="#8ddafc"/><stop offset="0.44" stop-color="#72cdf5"/><stop offset="0.79" stop-color="#46b9ea"/><stop offset="1" stop-color="#29abe2"/></linearGradient><linearGradient id="linear-gradient-10" x1="-131.28" y1="140.83" x2="50.09" y2="140.83" gradientTransform="translate(-60 213.37) rotate(-90)" gradientUnits="userSpaceOnUse"><stop offset="0" stop-color="#97dfff"/><stop offset="0.1" stop-color="#a4e3ff"/><stop offset="0.51" stop-color="#d5f2ff"/><stop offset="0.82" stop-color="#f4fbff"/><stop offset="1" stop-color="#fff"/></linearGradient><linearGradient id="linear-gradient-11" x1="-190.92" y1="181.96" x2="152.27" y2="181.96" xlink:href="#linear-gradient-10"/><linearGradient id="linear-gradient-12" x1="181.25" y1="232.87" x2="181.25" y2="60.5" xlink:href="#linear-gradient-10"/><linearGradient id="linear-gradient-13" x1="-286.21" y1="132.9" x2="21.88" y2="132.9" xlink:href="#linear-gradient-10"/><linearGradient id="linear-gradient-14" x1="-275.33" y1="232.87" x2="-275.33" y2="60.5" xlink:href="#linear-gradient"/><linearGradient id="linear-gradient-15" x1="-476.62" y1="170.38" x2="-350.66" y2="170.38" xlink:href="#linear-gradient"/><linearGradient id="linear-gradient-16" x1="-476.62" y1="146.68" x2="212.87" y2="146.68" xlink:href="#linear-gradient-2"/><linearGradient id="linear-gradient-17" x1="-476.62" y1="103.54" x2="-230.55" y2="103.54" xlink:href="#linear-gradient-2"/><linearGradient id="linear-gradient-18" x1="-476.62" y1="139.74" x2="-273.94" y2="139.74" gradientTransform="translate(-60 213.37) rotate(-90)" gradientUnits="userSpaceOnUse"><stop offset="0" stop-color="#0071bc"/><stop offset="0.05" stop-color="#0d78bf"/><stop offset="0.15" stop-color="#308cc9"/><stop offset="0.28" stop-color="#68abd7"/><stop offset="0.44" stop-color="#b5d6ec"/><stop offset="0.58" stop-color="#fff"/><stop offset="1" stop-color="#6fccf4"/></linearGradient><linearGradient id="linear-gradient-19" x1="-476.62" y1="146.68" x2="212.87" y2="146.68" gradientTransform="translate(-60 213.37) rotate(-90)" gradientUnits="userSpaceOnUse"><stop offset="0" stop-color="#fff" stop-opacity="0"/><stop offset="0.47" stop-color="#fff" stop-opacity="0.4"/><stop offset="0.58" stop-color="#fff" stop-opacity="0.5"/><stop offset="0.59" stop-color="#fff" stop-opacity="0.51"/><stop offset="0.65" stop-color="#fff" stop-opacity="0.66"/><stop offset="0.71" stop-color="#fff" stop-opacity="0.78"/><stop offset="0.77" stop-color="#fff" stop-opacity="0.88"/><stop offset="0.84" stop-color="#fff" stop-opacity="0.95"/><stop offset="0.91" stop-color="#fff" stop-opacity="0.99"/><stop offset="1" stop-color="#fff"/></linearGradient><linearGradient id="linear-gradient-20" x1="-476.62" y1="221.19" x2="-426.25" y2="221.19" xlink:href="#linear-gradient-19"/></defs><title>bg_2</title><g id="Layer_2" data-name="Layer 2"><g id="Objects"><rect class="cls-1" x="0.5" y="0.5" width="172.37" height="689.49"/><g class="cls-2"><polygon class="cls-3" points="0.5 377.59 0.5 549.49 12.19 625.7 172.87 618.31 172.87 208.18 0.5 377.59"/><path class="cls-1" d="M.5,377.59l.27,171.9v0l11.74,76.2-.33-.27,160.68-7.49-.4.42,0-205.07.13-205.07.54.23Zm0,0L172.65,207.95l.54-.53v.76l.13,205.07,0,205.07v.4l-.4,0L12.2,626h-.29l0-.29L.23,549.53v0Z"/></g><g class="cls-2"><polygon class="cls-4" points="172.87 614.81 172.87 371.05 0.5 318.11 0.5 588.44 172.87 614.81"/><path class="cls-1" d="M172.87,614.81,172.52,371l.25.34L.36,318.58l.64-.47L.8,588.44l-.25-.3Zm0,0L.45,588.73l-.25,0v-.26L0,318.11v-.67l.64.2L173,370.71l.25.08V371Z"/></g><g class="cls-2"><polygon class="cls-5" points="172.87 618 172.87 302.04 0.5 306.8 0.5 627.04 172.87 618"/><path class="cls-1" d="M172.87,618l-.38-316,.39.38L.51,307.29l.48-.5L.78,627l-.3-.28Zm0,0L.51,627.33l-.3,0V627L0,306.8v-.48H.49l172.37-4.64h.39V302Z"/></g><g class="cls-6"><polygon class="cls-7" points="43.75 493.67 172.87 455.27 172.87 393.65 43.75 493.67"/><path class="cls-1" d="M43.75,493.67l129-38.8-.3.4-.06-30.81q0-15.4,0-30.81l.76.37Zm0,0L172.58,393.28l.76-.59v1q0,15.4,0,30.81l-.06,30.81v.31l-.3.09Z"/></g><g class="cls-2"><polygon class="cls-8" points="43.75 493.67 172.87 603.9 172.87 474.85 43.75 493.67"/><path class="cls-1" d="M43.75,493.67l129.4,109.91-.71.33-.05-32.26V539.38l.1-64.53.42.36Zm0,0,129.07-19.18.42-.06v.43l.1,64.53v32.26l-.05,32.26v.93l-.71-.61Z"/></g><g class="cls-2"><polygon class="cls-9" points="172.87 230.25 172.87 209.01 0.5 377.89 0.5 689.56 21.05 689.56 172.87 230.25"/><path class="cls-1" d="M172.87,230.25l0-21.25.07,0L.73,378.13l.1-.23L1,689.56l-.48-.48H21.05l-.44.32,76-229.58Zm0,0L97.27,460,21.49,689.7l-.11.32H0v-.48L.17,377.89v-.14l.1-.1L172.85,209l.07-.06V209Z"/></g><g class="cls-2"><polygon class="cls-10" points="172.87 614.81 172.87 603.9 43.75 493.67 0.5 522.08 0.5 588.44 172.87 614.81"/><path class="cls-1" d="M172.87,614.81l0-10.9,0,0-32.39-27.43L108.12,549,43.48,494l.5,0L.77,522.49l.22-.41L.91,588.44.56,588l86,13.32Zm0,0L86.77,601.9.44,588.85l-.35-.05v-.35L0,522.08v-.27l.22-.15,43.29-28.35.26-.17.24.2,64.48,55.21,32.23,27.62,32.17,27.69h0v0Z"/></g><g class="cls-2"><polygon class="cls-11" points="172.87 628.19 172.87 618.79 0.5 652.14 0.5 689.56 91.11 689.56 172.87 628.19"/><path class="cls-1" d="M172.87,628.19l0-9.4.05,0-43.05,8.54-43.08,8.41L.59,652.59l.37-.45v37.42l-.48-.48,90.61.15-.2.07,40.9-30.57Zm0,0L132.17,659,91.3,689.82l-.09.07h-.11L.5,690H0V651.75l.37-.07,86.21-16.53,43.11-8.27,43.13-8.13h.05v.05Z"/></g><g class="cls-2"><polygon class="cls-12" points="0.5 690.42 35.64 690.42 172.87 621.22 172.87 615.53 0.5 623.65 0.5 690.42"/><path class="cls-1" d="M.5,690.42l35.14-.16-.07,0,34.25-17.41,34.28-17.35,68.56-34.71-.25.41v-5.69l.49.46-43.09,2-43.1,2L.51,623.92l.25-.27Zm0,0L.23,623.65v-.26H.49l86.18-4.2,43.09-2.1,43.09-2,.49,0v6.46l-.25.13-68.67,34.49L70.07,673.37,35.71,690.56l0,0h0Z"/></g><polygon class="cls-13" points="161.17 254.91 0.5 163.28 0.5 344.65 161.17 254.91"/><polygon class="cls-14" points="108.31 238.14 172.87 318.91 172.87 92.11 108.31 238.14"/><polygon class="cls-15" points="172.87 404.29 172.87 70.21 166.48 61.1 71.07 276.92 172.87 404.29"/><polygon class="cls-16" points="172.87 0.5 0.5 0.5 0.5 11.66 172.87 63.73 172.87 0.5"/><polygon class="cls-14" points="74.98 689.99 172.87 689.99 172.87 553.74 163.14 532.77 78.77 532.77 74.98 541.33 74.98 689.99"/><polygon class="cls-17" points="145.31 398.07 0.5 191.49 0.5 499.58 145.31 398.07"/><polygon class="cls-18" points="0.5 363.35 0.5 689.99 157.21 689.99 0.5 363.35"/><polygon class="cls-18" points="172.87 0.5 129.03 0.5 172.87 191.69 172.87 0.5"/><polygon class="cls-18" points="75.12 689.99 172.87 689.99 172.87 636.67 101.85 442.76 0.5 479.83 0.5 611.55 75.12 689.99"/><polygon class="cls-19" points="172.87 474.07 0.5 406.69 0.5 570.71 172.87 564.39 172.87 474.07"/><polygon class="cls-20" points="172.87 689.99 172.87 593.61 97.2 564.02 47.89 689.99 172.87 689.99"/><path class="cls-21" d="M166.78.5C171.73,317.66,60.91,443.14.5,487.85V690H172.87V.5Z"/><path class="cls-22" d="M86.58,690C61.89,641.38,23.7,554.43.5,443.92V690Z"/><path class="cls-23" d="M.5,487.31V690H159C76.56,649.83,26.81,555.2.5,487.31Z"/><g class="cls-2"><path class="cls-24" d="M153.21,303.51l-102.33-29L54.94.5H54.5L50.45,274.41l-22.39-6.34L.5,141v2L27.59,267.94.5,260.27v.45l27.19,7.7,12.86,59.3L.5,276.4v.7l40.26,51.59L49.07,367l-.62,41.7L24.2,366.66l-16.6,78L.5,436.48v.66l7,8L1.73,472.23.5,472.4v.44l1.13-.16L.5,478v2.07l1.59-7.46L28.27,469l19,21.79-.53,35.56L24.92,551,.5,505v.92l24.11,45.38L.5,578.55v.65l24.33-27.47,20.93,39.39-.26,17.67L.5,626.67v.46l45-17.87L44.29,690h.43l1.2-80.9L53.66,606l32,60.2L72.2,690h.49l13.19-23.33L98.28,690h.49L86.14,666.22l20.11-35.56L119.12,690h.44l-13-59.89L131,587l41.92,48.14v-.66l-41.69-47.88,8.28-14.64,2.13-.85,31.28,54.24v-.86L142,570.91l30.87-12.27v-.46l-31.09,12.35-.78-1.34,31.87-56.36V512l-32.12,56.8L89.09,479.18l18.64-21,30.77-4.22,34.37,44v-.7L139,453.85l33.88-4.64v-.44l-34.18,4.69-12.56-16.09,46.74-52.77v-.65l-47,53.08L49.91,339.7l1-64.72,102.48,29,19.52,68.37v-1.57l-19-66.66,19,5.39v-.45l-19.18-5.43M49.48,368.87l14.46,66.69L48.88,409.44Zm20.39,94-21.83,3,.82-55.6,15.38,26.66Zm-4.92-24.72,13.57,23.53-8.22,1.13ZM8,445l16.43-77.2,24.06,41.71-.84,56.39-19.17,2.63ZM2.18,472.17l5.66-26.6,20.09,23.07ZM28.78,469l18.82-2.58-.35,23.79Zm18.89,21.7L48,466.32l21.92-3,6.41,29.57L62.88,508.12Zm28.81,2.75,8.76,40.4L63.17,508.45ZM47.66,491.3l14.93,17.14L47.15,525.88ZM25.13,551.39,46.7,527l-.94,63.19ZM46.19,591l1-64.48,15.74-17.77,22.56,25.91L97.06,588.3l-43.2,17.16ZM86,535.36,123.11,578,97.47,588.14Zm-40.1,73.26.25-16.71,7.29,13.72Zm40,57.14L54.07,605.85l43.09-17.12,9,41.29Zm44.75-79.15-24.23,42.84-8.87-40.89,25.85-10.27Zm.23-.4-7-8.09,15-6Zm10.49-15.52-1.58.63,1-1.7Zm-.87-1.5-1.35,2.38-15.62,6.21-37.7-43.3-9-41.47,12-13.49ZM76.73,492.49l-6.34-29.23,8.36-1.15,9.81,17Zm12.14-13.71L79.21,462l27.86-3.82Zm49.33-25.26-30,4.12,17.67-20Zm-12.63-16.18-18.06,20.39L79,461.64,64.65,436.79,49.51,367l.39-26.58Zm-76.09-97.5-.37,25.26-7.73-35.64Zm0-.69L41.16,328.5l-13-59.94,22.28,6.31Z"/><polygon class="cls-25" points="172.87 639.62 149.52 689.99 150 689.99 172.87 640.65 172.87 639.62"/></g></g></g></svg>