<?xml version="1.0" encoding="utf-8"?>
<!-- Generator: Adobe Illustrator 21.1.0, SVG Export Plug-In . SVG Version: 6.00 Build 0)  -->
<svg version="1.1" id="Layer_1" xmlns="http://www.w3.org/2000/svg" xmlns:xlink="http://www.w3.org/1999/xlink" x="0px" y="0px"
	 width="190px" height="80px" viewBox="0 0 190 80" style="enable-background:new 0 0 190 80;" xml:space="preserve">
<style type="text/css">
	.st0{fill:#009FE3;}
</style>
<title>txt</title>
<g>
	<path d="M2.3,0c1.4,0,2.3,0.9,2.3,2.2S3.8,4.4,2.3,4.4C0.9,4.4,0,3.6,0,2.2S0.9,0,2.3,0z M2.3,3.9C3.4,3.9,4,3.2,4,2.2
		S3.4,0.5,2.3,0.5S0.6,1.1,0.6,2.2S1.2,3.9,2.3,3.9z"/>
	<path d="M5.5,0.1l1.5,2l1.5-2h0.7L7.3,2.6v1.8H6.7V2.6L4.8,0.1H5.5z"/>
	<path d="M12.3,1.3c0-0.5-0.4-0.8-1.1-0.8s-1.1,0.2-1.1,0.7c0,0.3,0.2,0.5,0.8,0.6L11.8,2c0.9,0.2,1.3,0.4,1.3,1.1
		c0,0.8-0.6,1.3-1.8,1.3c-1.3,0-1.9-0.5-1.9-1.5H10c0,0.7,0.5,1,1.3,1s1.2-0.3,1.2-0.7c0-0.3-0.2-0.5-0.7-0.6l-1-0.2
		C9.9,2.2,9.5,1.9,9.5,1.3c0-0.8,0.6-1.3,1.8-1.3C12.4,0,13,0.5,13,1.3H12.3z"/>
	<path d="M17.2,0.1v0.6h-1.6v3.7H15V0.7h-1.6V0.1H17.2z"/>
	<path d="M17.7,0.1H21v0.6h-2.8v1.2h2.6v0.6h-2.6v1.3H21v0.6h-3.4V0.1H17.7z"/>
	<path d="M21.8,0.1H24c1,0,1.5,0.4,1.5,1.2c0,0.5-0.2,0.9-0.7,1c0.5,0.1,0.6,0.3,0.7,1c0,0.6,0.1,0.9,0.2,1H25
		c-0.1-0.1-0.1-0.3-0.1-0.8c-0.1-0.8-0.2-1-0.9-1h-1.6v1.8h-0.6V0.1z M22.4,2h1.4C24.6,2,25,1.9,25,1.3s-0.4-0.7-1.2-0.7h-1.3V2
		H22.4z"/>
	<path d="M29.2,1.3c0-0.5-0.4-0.8-1.1-0.8S27,0.8,27,1.2c0,0.3,0.2,0.5,0.8,0.6L28.7,2C29.6,2.1,30,2.4,30,3.1
		c0,0.8-0.6,1.3-1.8,1.3c-1.3,0-1.9-0.5-1.9-1.5h0.6c0,0.7,0.5,1,1.3,1s1.2-0.3,1.2-0.7c0-0.3-0.2-0.5-0.7-0.6l-1-0.2
		c-0.8-0.1-1.2-0.5-1.2-1.1C26.4,0.5,27,0,28.2,0c1.1,0,1.7,0.5,1.7,1.3H29.2z"/>
	<path d="M33.3,4.3h-0.6V0.1h1.9c1,0,1.6,0.4,1.6,1.2c0,0.9-0.5,1.2-1.6,1.2h-1.3C33.3,2.5,33.3,4.3,33.3,4.3z M33.3,2.1h1.1
		c0.8,0,1.2-0.2,1.2-0.7c0-0.6-0.4-0.8-1.2-0.8h-1.2v1.5H33.3z"/>
	<path d="M38,0.1h0.6l1.9,4.2h-0.6l-0.5-1.2h-2.2l-0.6,1.2H36L38,0.1z M39.1,2.6l-0.8-1.8l-0.9,1.8H39.1z"/>
	<path d="M43,4.4c-1.4,0-2.3-0.9-2.3-2.2S41.6,0,43,0c1.2,0,2,0.7,2.1,1.6h-0.6c-0.2-0.6-0.7-1-1.5-1c-1.1,0-1.7,0.6-1.7,1.7
		S41.9,4,43,4c0.8,0,1.4-0.5,1.5-1.2h0.6C45,3.7,44.2,4.4,43,4.4z"/>
	<path d="M46.5,4.3h-0.6V0.1h0.6V4.3z"/>
	<path d="M50.7,0.1v0.6h-2.6v1.2h2.3v0.6h-2.3v1.9h-0.6V0.1H50.7z"/>
	<path d="M51.9,4.3h-0.6V0.1h0.6V4.3z"/>
	<path d="M55,4.4c-1.4,0-2.3-0.9-2.3-2.2S53.5,0,55,0c1.2,0,2,0.7,2.1,1.6h-0.6c-0.2-0.6-0.7-1-1.5-1c-1.1,0-1.7,0.6-1.7,1.7
		S53.9,4,55,4c0.8,0,1.4-0.5,1.5-1.2h0.6C57,3.7,56.2,4.4,55,4.4z"/>
	<path d="M59.7,0.1h3.4v0.6h-2.8v1.2h2.6v0.6h-2.6v1.3h2.8v0.6h-3.4V0.1z"/>
</g>
<g>
	<path d="M4.6,10C4.4,9.4,3.9,9,3,9c-1,0-1.6,0.6-1.6,1.6S2,12.3,3,12.3c0.9,0,1.4-0.4,1.5-1.1H6c-0.1,1.3-1.3,2.1-2.9,2.1
		c-1.9,0-3-1.1-3-2.7S1.2,8,3,8c1.7,0,2.8,0.8,3,2H4.6z"/>
	<path d="M8.5,8.1l1.6,3.6l1.7-3.6h1.6v5.1h-1.2V9.8l-1.6,3.4h-1L8.1,9.8v3.5H6.8V8.1H8.5z"/>
	<path d="M16.3,8.1h1.2l2.3,5.1h-1.4l-0.5-1.1h-2.2l-0.5,1.1h-1.4L16.3,8.1z M17.5,11.1l-0.7-1.6l-0.7,1.6H17.5z"/>
	<path d="M20.2,8.1h3c1.2,0,1.9,0.7,1.9,1.7c0,1.1-0.7,1.8-1.9,1.8h-1.7v1.6h-1.3V8.1z M21.5,10.6h1.2c0.8,0,1.2-0.1,1.2-0.7
		c0-0.6-0.3-0.7-1.1-0.7h-1.3C21.5,9.2,21.5,10.6,21.5,10.6z"/>
	<path d="M30.1,8.1v1h-1.7v4h-1.3v-4h-1.7v-1H30.1z"/>
	<path d="M34.8,8.1v0.5h0.5c1.2,0,2.7,0.5,2.7,2c0,1.4-1.1,2-2.7,2h-0.5v0.6h-1.3v-0.6H33c-1.5,0-2.7-0.6-2.7-2c0-1.5,1.5-2,2.7-2
		h0.5V8.1H34.8z M33.5,9.6h-0.4c-0.8,0-1.5,0.3-1.5,1s0.8,1,1.5,1h0.4V9.6z M34.8,11.6h0.4c0.8,0,1.5-0.3,1.5-1
		c0-0.8-0.8-1.1-1.5-1.1h-0.4V11.6z"/>
	<path d="M44.7,10.7c0,1.6-1.2,2.7-3,2.7s-3-1.1-3-2.7s1.2-2.7,3-2.7S44.7,9.1,44.7,10.7z M40,10.7c0,1,0.6,1.6,1.6,1.6
		s1.6-0.6,1.6-1.6s-0.6-1.6-1.6-1.6S40,9.7,40,10.7z"/>
	<path d="M46.8,10h2.4V8.1h1.3v5.1h-1.3V11h-2.4v2.2h-1.3V8.1h1.3V10z"/>
</g>
<g>
	<path d="M54.2,41.5c1.6,0,3.3,0,4.9,0c-3.3,5.1-6.5,10.3-9.8,15.4c-0.4,0.8-1.1,1.6-1,2.5c0,4,0,8,0,12.1c-1.5,0-2.9,0-4.4,0
		c0-4.3,0-8.5,0-12.8C40.2,53,36.7,47.2,33,41.5c1.7,0,3.4,0,5.1,0c2.6,4.3,5.3,8.6,8,12.9C48.9,50.2,51.5,45.8,54.2,41.5z"/>
	<path d="M0.7,38c8.4-6.7,21.2-6.7,29.6,0c-0.9,1.1-1.8,2.1-2.6,3.2c-6.9-5.5-17.4-5.5-24.3,0C2.5,40.1,1.6,39,0.7,38z"/>
	<path d="M66.5,42.8c4.5-3,10.9-2.1,14.8,1.5c-0.8,1.1-1.6,2.3-2.4,3.4c-2.4-2.3-6.2-3.4-9.3-1.8c-2.4,1.3-2.2,5.1,0,6.5
		c3.2,2.3,7.5,2.7,10.4,5.5c3.2,3,2.9,8.9-0.6,11.6c-5,4-13.4,2.9-17.1-2.3c0.9-1,1.7-2,2.5-3c2.6,3.1,7.4,4.9,11,2.7
		c2.3-1.3,2.3-4.9,0.2-6.4c-3.2-2.4-7.4-2.9-10.4-5.6C62.2,51.8,62.6,45.4,66.5,42.8z"/>
	<path d="M86.1,41.5c8.4,0,16.7,0,25.1,0c0,1.3,0,2.7,0,4c-3.4,0-6.9,0-10.3,0c0,8.7,0,17.3,0,26c-1.5,0-2.9,0-4.4,0
		c0-8.7,0-17.3,0-26c-3.5,0-6.9,0-10.4,0C86.1,44.2,86.1,42.8,86.1,41.5z"/>
	<path d="M117.3,41.5c5.8,0,11.6,0,17.4,0c0,1.3,0,2.7,0,4c-4.3,0-8.7,0-13,0c0,2.9,0,5.8,0,8.7c3.9,0,7.8,0,11.8,0
		c0,1.4,0,2.7,0,4.1c-3.9,0-7.9,0-11.8,0c0,3,0,6,0,9c4.5,0,9,0,13.5,0c0,1.4,0,2.7,0,4.1c-6,0.1-11.9,0-17.9,0
		C117.3,61.5,117.3,51.5,117.3,41.5z"/>
	<path d="M174.7,42.6c4.5-2.8,10.6-1.7,14.5,1.7c-0.8,1.1-1.6,2.3-2.4,3.4c-2.4-2.2-6-3.3-9.1-1.9c-2.3,1.1-2.7,4.5-0.8,6.2
		c2.3,2.1,5.5,2.6,8.1,4.1c2.4,1.2,4.7,3.3,4.9,6.2v3.1c-2.3,8.5-15.2,8.6-19.8,2c0.9-1,1.7-2,2.6-3c2.6,3,7.3,4.8,11,2.6
		c2.2-1.3,2.4-4.7,0.4-6.2c-3.4-2.7-8.2-3.1-11.1-6.4C170,50.9,170.8,44.9,174.7,42.6z"/>
	<path class="st0" d="M30.4,52c-2.1-7.2-9.9-12.1-17.3-10.8C6.4,42.2,0.9,47.9,0,54.6v3.2C0.4,63,3.7,67.9,8.4,70.2
		c5.4,2.9,12.5,2.1,17.2-2C30.3,64.4,32.2,57.7,30.4,52z M16.1,67.8C10.3,68.3,4.8,63.7,4.2,58c-0.8-5.5,3-11,8.3-12.4
		c6-1.8,12.9,2.4,14.1,8.6C28.3,60.7,22.8,67.7,16.1,67.8z"/>
	<path d="M156.7,59.1c6.3-2,8.3-11.1,3.2-15.4c-4.7-3.5-10.9-1.9-16.4-2.1c0.1,10,0,20,0,30c1.4,0,2.9,0,4.3,0c0-3.9,0-7.8,0-11.7
		c1.4,0,2.8,0,4.3,0c3,3.9,6,7.8,9.1,11.7c1.8,0,3.6,0,5.4,0C163.3,67.5,160.1,63.3,156.7,59.1z M147.9,55.7c0-3.3,0-6.7,0-10
		c2.8,0,5.9-0.5,8.4,1c2.6,1.6,2.5,5.9,0.1,7.6C154,56.2,150.8,55.6,147.9,55.7z"/>
	<path d="M3.3,71.8c7,5.4,17.4,5.5,24.3,0c0.9,1.1,1.8,2.1,2.6,3.2C22,81.7,9.1,81.7,0.7,75C1.6,73.9,2.5,72.9,3.3,71.8z"/>
</g>
<g>
	<path d="M72.3,0c1.4,0,2.3,0.9,2.3,2.2s-0.9,2.2-2.3,2.2S70,3.5,70,2.2S70.9,0,72.3,0z M72.3,3.9c1.1,0,1.7-0.6,1.7-1.7
		c0-1-0.6-1.7-1.7-1.7s-1.7,0.6-1.7,1.7S71.2,3.9,72.3,3.9z"/>
	<path d="M75.5,0.1l1.5,2l1.5-2h0.7l-1.9,2.5v1.8h-0.6V2.6l-1.9-2.5C74.8,0.1,75.5,0.1,75.5,0.1z"/>
	<path d="M82.3,1.3c0-0.5-0.4-0.8-1.1-0.8s-1.1,0.2-1.1,0.7c0,0.3,0.2,0.5,0.8,0.6L81.8,2c0.9,0.2,1.3,0.4,1.3,1.1
		c0,0.8-0.6,1.3-1.8,1.3c-1.3,0-1.9-0.5-1.9-1.5H80c0,0.7,0.5,1,1.3,1s1.2-0.3,1.2-0.7c0-0.3-0.2-0.5-0.7-0.6l-1-0.2
		c-0.8-0.1-1.2-0.5-1.2-1.1c0-0.8,0.6-1.3,1.8-1.3c1.1,0,1.7,0.5,1.7,1.3C83.1,1.3,82.3,1.3,82.3,1.3z"/>
	<path d="M87.2,0.1v0.6h-1.6v3.7H85V0.7h-1.6V0.1H87.2z"/>
	<path d="M87.7,0.1H91v0.6h-2.8v1.2h2.6v0.6h-2.6v1.3H91v0.6h-3.4L87.7,0.1L87.7,0.1z"/>
	<path d="M91.8,0.1H94c1,0,1.5,0.4,1.5,1.2c0,0.5-0.2,0.9-0.7,1c0.5,0.1,0.6,0.3,0.7,1c0,0.6,0.1,0.9,0.2,1H95
		c-0.1-0.1-0.1-0.3-0.1-0.8c-0.1-0.8-0.2-1-0.9-1h-1.6v1.8h-0.6V0.1z M92.4,2h1.4c0.8,0,1.1-0.2,1.1-0.7c0-0.6-0.4-0.7-1.2-0.7h-1.3
		V2z"/>
	<path d="M99.2,1.3c0-0.5-0.4-0.8-1.1-0.8S97,0.7,97,1.2c0,0.3,0.2,0.5,0.8,0.6L98.7,2c0.9,0.2,1.3,0.4,1.3,1.1
		c0,0.8-0.6,1.3-1.8,1.3c-1.3,0-1.9-0.5-1.9-1.5h0.6c0,0.7,0.5,1,1.3,1s1.2-0.3,1.2-0.7c0-0.3-0.2-0.5-0.7-0.6l-1-0.2
		c-0.8-0.1-1.2-0.5-1.2-1.1C96.4,0.5,97,0,98.2,0c1.1,0,1.7,0.5,1.7,1.3H99.2z"/>
	<path d="M106,0.1v0.6h-1.6v3.7h-0.6V0.7h-1.6V0.1H106z"/>
	<path d="M109,0.8h-2.6V0.2h3.2v0.6c-0.9,1.1-1.5,2.2-1.7,3.6h-0.7C107.5,2.8,108.1,1.6,109,0.8z"/>
	<path d="M110.3,1.6c0-1,0.6-1.5,1.6-1.5s1.6,0.5,1.6,1.3s-0.6,1.2-1.2,1.5c-0.4,0.2-1.2,0.6-1.3,0.9h2.5v0.6h-3.2
		c0-0.8,0.7-1.4,1.5-1.7c0.8-0.4,1.2-0.6,1.2-1.2c0-0.5-0.4-0.8-1-0.8s-1,0.3-1,1h-0.7V1.6z"/>
	<path d="M114.9,1.8h2.6V0.1h0.6v4.2h-0.6v-2h-2.6v2h-0.6V0.1h0.6V1.8z"/>
	<path d="M119.9,0.1l1.6,3.7l1.7-3.7h0.9v4.2h-0.6V0.6l-1.7,3.7h-0.6l-1.6-3.7v3.7H119V0.1H119.9z"/>
</g>
<g>
	<path d="M75,8v5.1h-1.3V9h-2.4v4H70V8H75z"/>
	<path d="M81.4,8v5.1h-1.3V9h-2.2v2c0,1.3-0.4,2.2-1.6,2.2c-0.3,0-0.6,0-0.8-0.1V12c0.1,0,0.2,0,0.4,0c0.6,0,0.7-0.3,0.7-1.4V8H81.4
		z"/>
	<path d="M84.3,8h1.2l2.3,5.1h-1.4L85.9,12h-2.2l-0.5,1.1h-1.4L84.3,8z M85.5,11l-0.7-1.6L84.1,11H85.5z"/>
	<path d="M89.5,9.9h2.4V8h1.3v5.1h-1.3v-2.2h-2.4v2.2h-1.3V8h1.3V9.9z"/>
	<path d="M95.6,12h1.8V8h1.3v4h1.8V8h1.3v5.1h-7.4V8h1.3v4H95.6z"/>
	<path d="M107.4,8v1h-3.2v0.8h2.9v1h-2.9V12h3.2v1h-4.5V8H107.4z"/>
	<path d="M112.5,8v1h-1.7v4h-1.3V9h-1.7V8H112.5z"/>
</g>
<g>
	<path d="M83.5,15v5.8h-0.8v-5h-3.5v5h-0.8V15H83.5z"/>
	<path d="M90.3,15v5.8h-0.8v-5h-3.3v2.3c0,2.3-0.6,2.8-1.4,2.8c-0.2,0-0.4,0-0.6-0.1v-0.7c0.1,0,0.2,0,0.4,0c0.6,0,0.8-0.8,0.8-2.4
		V15H90.3z"/>
	<path d="M93.7,15h0.9l2.6,5.8h-0.9l-0.7-1.7h-3l-0.8,1.7H91L93.7,15z M95.3,18.4l-1.1-2.5L93,18.4H95.3z"/>
	<path d="M98.7,17.3h3.5V15h0.8v5.8h-0.8v-2.7h-3.5v2.7h-0.8V15h0.8V17.3z"/>
	<path d="M105.2,20h2.9v-5h0.8v5h2.9v-5h0.8v5.8h-8.2V15h0.8V20z"/>
	<path d="M113.9,15h4.6v0.8h-3.8v1.7h3.6v0.8h-3.6V20h3.8v0.8h-4.7V15z"/>
	<path d="M124.2,15v0.8H122v5h-0.8v-5h-2.2V15H124.2z"/>
	<path d="M125.7,17.3h1.8c1.4,0,2.2,0.6,2.2,1.8c0,1.2-0.7,1.7-2.1,1.7h-2.7V15h0.8V17.3z M125.7,20h1.6c1.1,0,1.6-0.2,1.6-1
		c0-0.8-0.5-1-1.6-1h-1.5V20z M131.7,20.8h-0.8V15h0.8V20.8z"/>
	<path d="M70.8,24.6v4.9l3.7-4.9h1.1v5.8h-0.8v-4.9l-3.6,4.9H70v-5.8H70.8z"/>
	<path d="M82.4,30.6c-2,0-3.2-1.2-3.2-3.1s1.2-3.1,3.2-3.1c1.6,0,2.8,0.9,2.9,2.3h-0.9c-0.2-0.9-0.9-1.5-2-1.5
		c-1.5,0-2.3,0.9-2.3,2.3s0.9,2.3,2.3,2.3c1.1,0,1.9-0.6,2.1-1.6h0.9C85.2,29.6,84.1,30.6,82.4,30.6z"/>
	<path d="M87.6,24.6l2.2,5.1l2.3-5.1h1.2v5.8h-0.8v-5.1l-2.3,5.1h-0.8l-2.3-5.1v5.1h-0.8v-5.8H87.6z"/>
	<path d="M96.7,24.6h0.9l2.6,5.8h-0.9l-0.7-1.7h-3l-0.8,1.7H94L96.7,24.6z M98.2,28l-1.1-2.5L96,28H98.2z"/>
	<path d="M101.7,30.4h-0.8v-5.8h2.7c1.4,0,2.1,0.5,2.1,1.7c0,1.2-0.7,1.7-2.2,1.7h-1.8V30.4z M101.7,27.3h1.5c1.1,0,1.6-0.3,1.6-1
		c0-0.8-0.5-1.1-1.6-1.1h-1.6V27.3z"/>
	<path d="M111.3,24.6v0.8H109v5h-0.8v-5H106v-0.8H111.3z"/>
	<path d="M115.5,24.6v0.5c1.9,0,3.1,0.9,3.1,2.3s-1.2,2.3-3.1,2.3v0.7h-0.8v-0.7c-1.9,0-3.1-0.9-3.1-2.3s1.2-2.3,3.1-2.3v-0.5H115.5
		z M114.7,25.8c-1.4,0-2.2,0.4-2.2,1.6c0,1.2,0.8,1.7,2.2,1.7V25.8z M115.5,29c1.4,0,2.2-0.5,2.2-1.7c0-1.2-0.8-1.6-2.2-1.6V29z"/>
	<path d="M122.5,24.4c2,0,3.2,1.2,3.2,3.1s-1.2,3.1-3.2,3.1c-2,0-3.2-1.2-3.2-3.1S120.5,24.4,122.5,24.4z M122.5,29.8
		c1.5,0,2.3-0.9,2.3-2.3c0-1.4-0.8-2.3-2.3-2.3c-1.5,0-2.3,0.9-2.3,2.3S121,29.8,122.5,29.8z"/>
	<path d="M127.5,26.9h3.5v-2.3h0.8v5.8h-0.8v-2.7h-3.5v2.7h-0.8v-5.8h0.8V26.9z"/>
	<path d="M134,26.9h1.8c1.4,0,2.2,0.6,2.2,1.8c0,1.2-0.7,1.7-2.1,1.7h-2.7v-5.8h0.8V26.9z M134,29.6h1.6c1.1,0,1.6-0.2,1.6-1
		s-0.5-1-1.6-1H134V29.6z M140,30.4h-0.8v-5.8h0.8V30.4z"/>
</g>
</svg>
